<svg width="32" height="28" viewBox="0 0 32 28" fill="none" xmlns="http://www.w3.org/2000/svg">
<path d="M16.0485 12.1762L12.873 6.72923C12.8401 6.67302 12.8205 6.60674 12.8164 6.53772C12.8123 6.4687 12.8238 6.39962 12.8496 6.33811C12.9025 6.21292 13.0077 6.13365 13.1223 6.13365H14.6075V1.99162C13.193 1.25408 11.6023 0.865625 9.97557 0.865625C8.69153 0.865625 7.44727 1.10073 6.27174 1.56749C5.13599 2.01696 4.11237 2.6635 3.23344 3.48637C2.3581 4.30275 1.65886 5.27538 1.17535 6.34914C0.67258 7.4659 0.415771 8.6518 0.415771 9.87228C0.415771 11.0236 0.66173 12.2233 1.15003 13.4438C1.55875 14.4638 2.14471 15.5218 2.89344 16.5901C4.07982 18.2808 5.7111 20.0441 7.73663 21.8316C11.0932 24.7946 14.4173 26.8415 14.5583 26.9244L15.4156 27.45C15.7954 27.6816 16.2837 27.6816 16.6635 27.45L17.5207 26.9244C17.6618 26.838 20.9822 24.7946 24.3424 21.8316C26.3679 20.0441 27.9992 18.2808 29.1856 16.5901C29.9343 15.5218 30.5239 14.4638 30.929 13.4438C31.4173 12.2233 31.6633 11.0236 31.6633 9.87228C31.6669 8.6518 31.4101 7.4659 30.9073 6.34914C30.4225 5.27608 29.7234 4.30368 28.8492 3.48637C27.9744 2.66663 26.9429 2.0152 25.8109 1.56749C24.6371 1.1014 23.3781 0.862828 22.1071 0.865625C20.6666 0.865625 19.2545 1.1702 17.9679 1.752L17.9678 6.13395H19.4526C19.5089 6.13381 19.5642 6.15275 19.6122 6.18866C19.6603 6.22458 19.6994 6.27609 19.7252 6.33751C19.751 6.39886 19.7627 6.46777 19.7587 6.53669C19.7548 6.60561 19.7355 6.67187 19.7028 6.72818L16.5478 12.175C16.5195 12.2238 16.4821 12.2637 16.4387 12.2912C16.3953 12.3188 16.3471 12.3332 16.2982 12.3334C16.2495 12.3333 16.2008 12.319 16.1575 12.2917C16.1142 12.2643 16.0769 12.2247 16.0485 12.1762Z" fill="#006CFF"/>
</svg>
