<svg width="53" height="53" viewBox="0 0 53 53" fill="none" xmlns="http://www.w3.org/2000/svg">
<ellipse cx="26.0396" cy="26.0148" rx="26.0396" ry="26.0148" fill="#006CFF"/>
<path d="M26.0485 26.176L22.873 20.7291C22.8401 20.6729 22.8205 20.6066 22.8164 20.5376C22.8123 20.4686 22.8238 20.3995 22.8496 20.338C22.9025 20.2128 23.0077 20.1335 23.1223 20.1335H24.6075V15.9915C23.193 15.254 21.6023 14.8655 19.9756 14.8655C18.6915 14.8655 17.4473 15.1006 16.2717 15.5674C15.136 16.0168 14.1124 16.6634 13.2334 17.4863C12.3581 18.3026 11.6589 19.2753 11.1753 20.349C10.6726 21.4658 10.4158 22.6517 10.4158 23.8722C10.4158 25.0235 10.6617 26.2232 11.15 27.4437C11.5588 28.4637 12.1447 29.5216 12.8934 30.59C14.0798 32.2807 15.7111 34.044 17.7366 35.8315C21.0932 38.7945 24.4173 40.8413 24.5583 40.9243L25.4156 41.4498C25.7954 41.6815 26.2837 41.6815 26.6635 41.4498L27.5207 40.9243C27.6618 40.8379 30.9822 38.7945 34.3424 35.8315C36.3679 34.044 37.9992 32.2807 39.1856 30.59C39.9343 29.5216 40.5239 28.4637 40.929 27.4437C41.4173 26.2232 41.6633 25.0235 41.6633 23.8722C41.6669 22.6517 41.4101 21.4658 40.9073 20.349C40.4225 19.276 39.7234 18.3036 38.8492 17.4863C37.9744 16.6665 36.9429 16.0151 35.8109 15.5674C34.6371 15.1013 33.3781 14.8627 32.1071 14.8655C30.6666 14.8655 29.2545 15.1701 27.9679 15.7519L27.9678 20.1338H29.4526C29.5089 20.1337 29.5642 20.1526 29.6122 20.1885C29.6603 20.2245 29.6994 20.276 29.7252 20.3374C29.751 20.3987 29.7627 20.4677 29.7587 20.5366C29.7548 20.6055 29.7355 20.6717 29.7028 20.7281L26.5478 26.1748C26.5195 26.2237 26.4821 26.2636 26.4387 26.2911C26.3953 26.3187 26.3471 26.3331 26.2982 26.3332C26.2495 26.3332 26.2008 26.3189 26.1575 26.2916C26.1142 26.2642 26.0769 26.2246 26.0485 26.176Z" fill="white"/>
</svg>
